<svg width="414" height="320" viewBox="0 0 414 320" fill="none" xmlns="http://www.w3.org/2000/svg">
<g filter="url(#filter0_d_95_36)">
<mask id="mask0_95_36" style="mask-type:alpha" maskUnits="userSpaceOnUse" x="20" y="28" width="374" height="240">
<rect x="20" y="28" width="374" height="240" rx="8" fill="#D1BBFF"/>
</mask>
<g mask="url(#mask0_95_36)">
<rect x="20" y="28" width="374" height="240" rx="8" fill="url(#paint0_linear_95_36)"/>
<ellipse cx="311.5" cy="151.5" rx="167.5" ry="165.5" fill="white" fill-opacity="0.12"/>
<g filter="url(#filter1_d_95_36)">
<path d="M59.1497 150H61.8792V146.382H64.3929V143.995H61.8792V131.681H57.7659C53.64 137.647 51.5579 140.936 49.9837 143.894V146.382H59.1497V150ZM52.637 143.97C54.097 141.316 55.9505 138.46 59.1243 133.877H59.1751V144.033H52.637V143.97ZM69.6337 150H72.6171L80.5771 134.144V131.681H68.1103V134.08H77.7714V134.144L69.6337 150ZM92.4321 150H95.1616V146.382H97.6753V143.995H95.1616V131.681H91.0483C86.9224 137.647 84.8403 140.936 83.2661 143.894V146.382H92.4321V150ZM85.9194 143.97C87.3794 141.316 89.2329 138.46 92.4067 133.877H92.4575V144.033H85.9194V143.97ZM102.916 150H105.9L113.859 134.144V131.681H101.393V134.08H111.054V134.144L102.916 150ZM142.493 150H145.223V146.382H147.736V143.995H145.223V131.681H141.109C136.983 137.647 134.901 140.936 133.327 143.894V146.382H142.493V150ZM135.98 143.97C137.44 141.316 139.294 138.46 142.468 133.877H142.518V144.033H135.98V143.97ZM152.977 150H155.96L163.92 134.144V131.681H151.454V134.08H161.115V134.144L152.977 150ZM175.775 150H178.505V146.382H181.019V143.995H178.505V131.681H174.392C170.266 137.647 168.184 140.936 166.609 143.894V146.382H175.775V150ZM169.263 143.97C170.723 141.316 172.576 138.46 175.75 133.877H175.801V144.033H169.263V143.97ZM186.259 150H189.243L197.203 134.144V131.681H184.736V134.08H194.397V134.144L186.259 150ZM225.836 150H228.566V146.382H231.079V143.995H228.566V131.681H224.453C220.327 137.647 218.245 140.936 216.67 143.894V146.382H225.836V150ZM219.324 143.97C220.784 141.316 222.637 138.46 225.811 133.877H225.862V144.033H219.324V143.97ZM236.32 150H239.304L247.264 134.144V131.681H234.797V134.08H244.458V134.144L236.32 150ZM259.119 150H261.848V146.382H264.362V143.995H261.848V131.681H257.735C253.609 137.647 251.527 140.936 249.953 143.894V146.382H259.119V150ZM252.606 143.97C254.066 141.316 255.919 138.46 259.093 133.877H259.144V144.033H252.606V143.97ZM269.603 150H272.586L280.546 134.144V131.681H268.079V134.08H277.74V134.144L269.603 150ZM309.18 150H311.909V146.382H314.423V143.995H311.909V131.681H307.796C303.67 137.647 301.588 140.936 300.014 143.894V146.382H309.18V150ZM302.667 143.97C304.127 141.316 305.98 138.46 309.154 133.877H309.205V144.033H302.667V143.97ZM319.664 150H322.647L330.607 134.144V131.681H318.14V134.08H327.801V134.144L319.664 150ZM342.462 150H345.191V146.382H347.705V143.995H345.191V131.681H341.078C336.952 137.647 334.87 140.936 333.296 143.894V146.382H342.462V150ZM335.949 143.97C337.409 141.316 339.263 138.46 342.437 133.877H342.487V144.033H335.949V143.97ZM352.946 150H355.929L363.889 134.144V131.681H351.423V134.08H361.084V134.144L352.946 150Z" fill="white"/>
</g>
<g filter="url(#filter2_d_95_36)">
<path d="M57.4785 230.113H59.793L54.7051 216.021H52.3418L47.2539 230.113H49.5293L50.8184 226.304H56.1895L57.4785 230.113ZM53.4746 218.365H53.5332L55.6328 224.546H51.375L53.4746 218.365ZM70.6957 228.218H64.1332V216.021H61.9457V230.113H70.6957V228.218ZM82.116 228.218H75.3582V223.843H81.7547V222.027H75.3582V217.906H82.116V216.021H73.1707V230.113H82.116V228.218ZM84.093 230.113H86.5148L90.0695 224.741H90.1379L93.6437 230.113H96.2023L91.5148 223.12V223.062L96.2902 216.021H93.8195L90.3039 221.47H90.2258L86.7492 216.021H84.1418L88.7707 222.984V223.052L84.093 230.113ZM107.554 230.113H109.869L104.781 216.021H102.418L97.3297 230.113H99.6051L100.894 226.304H106.265L107.554 230.113ZM103.55 218.365H103.609L105.709 224.546H101.451L103.55 218.365ZM114.15 230.113V219.732H114.238L121.543 230.113H123.516V216.021H121.387V226.411H121.309L114.004 216.021H112.021V230.113H114.15ZM126.723 216.021V230.113H131.694C135.893 230.113 138.364 227.495 138.364 223.042C138.364 218.599 135.883 216.021 131.694 216.021H126.723ZM128.911 217.906H131.489C134.467 217.906 136.127 219.741 136.127 223.062C136.127 226.392 134.477 228.218 131.489 228.218H128.911V217.906ZM143.241 217.857H146.249C147.938 217.857 148.964 218.814 148.964 220.386C148.964 221.997 147.997 222.925 146.307 222.925H143.241V217.857ZM143.241 224.693H146.249L149.12 230.113H151.639L148.485 224.351C150.204 223.775 151.22 222.232 151.22 220.327C151.22 217.7 149.413 216.021 146.512 216.021H141.054V230.113H143.241V224.693ZM163.118 230.113H165.433L160.345 216.021H157.982L152.894 230.113H155.169L156.458 226.304H161.829L163.118 230.113ZM159.114 218.365H159.173L161.273 224.546H157.015L159.114 218.365ZM171.623 226.187C171.76 228.736 173.869 230.347 176.994 230.347C180.334 230.347 182.434 228.697 182.434 226.06C182.434 223.999 181.232 222.837 178.342 222.154L176.789 221.773C174.973 221.323 174.23 220.738 174.23 219.741C174.23 218.491 175.393 217.632 177.092 217.632C178.791 217.632 179.953 218.482 180.08 219.888H182.209C182.141 217.456 180.1 215.786 177.121 215.786C174.113 215.786 171.994 217.456 171.994 219.888C171.994 221.851 173.195 223.062 175.783 223.687L177.609 224.126C179.436 224.575 180.207 225.23 180.207 226.323C180.207 227.583 178.928 228.501 177.15 228.501C175.295 228.501 173.938 227.583 173.781 226.187H171.623ZM199.254 230.113V216.021H196.715L192.164 227.144H192.086L187.526 216.021H184.996V230.113H186.989V219.741H187.057L191.315 230.005H192.936L197.184 219.741H197.252V230.113H199.254ZM204.639 230.113V216.021H202.452V230.113H204.639ZM213.521 230.113V217.906H217.827V216.021H207.017V217.906H211.333V230.113H213.521ZM231.826 230.113V216.021H229.638V221.978H222.402V216.021H220.214V230.113H222.402V223.872H229.638V230.113H231.826Z" fill="white"/>
</g>
<g filter="url(#filter3_d_95_36)">
<path d="M320.21 230.264C323.589 230.264 325.571 227.422 325.571 222.93C325.571 218.467 323.579 215.645 320.21 215.645C316.851 215.645 314.829 218.477 314.829 222.939C314.829 227.432 316.831 230.264 320.21 230.264ZM320.21 228.428C318.198 228.428 317.046 226.338 317.046 222.939C317.046 219.59 318.218 217.48 320.21 217.48C322.202 217.48 323.364 219.58 323.364 222.939C323.364 226.348 322.222 228.428 320.21 228.428ZM327.995 230H330.289L336.412 217.803V215.908H326.823V217.754H334.254V217.803L327.995 230ZM339.177 233.008L344.177 215.908H342.302L337.302 233.008H339.177ZM345.204 220.039V220.059H347.274V220.029C347.274 218.564 348.436 217.451 349.979 217.451C351.444 217.451 352.577 218.447 352.577 219.697C352.577 220.801 352.128 221.543 350.409 223.33L345.321 228.516V230H354.96V228.154H348.27V228.105L351.796 224.561C353.856 222.451 354.735 221.23 354.735 219.59C354.735 217.354 352.733 215.645 350.048 215.645C347.245 215.645 345.204 217.5 345.204 220.039ZM360.518 230H362.656V215.908H360.498L356.787 218.545V220.693L360.469 218.076H360.518V230Z" fill="white"/>
</g>
<path d="M341.983 63.2765H322.731V94.7203H341.983V63.2765Z" fill="#FF5F00"/>
<path d="M324.714 79.001C324.712 75.9732 325.398 72.9846 326.722 70.2613C328.045 67.5379 329.97 65.1513 332.352 63.2819C329.402 60.9635 325.859 59.5219 322.129 59.1218C318.398 58.7216 314.631 59.379 311.256 61.0189C307.882 62.6588 305.036 65.215 303.046 68.3954C301.056 71.5757 300 75.2519 300 79.0038C300 82.7556 301.056 86.4318 303.046 89.6122C305.036 92.7925 307.882 95.3487 311.256 96.9886C314.631 98.6285 318.398 99.2859 322.129 98.8858C325.859 98.4856 329.402 97.044 332.352 94.7257C329.969 92.8557 328.044 90.4681 326.72 87.7438C325.397 85.0194 324.711 82.0297 324.714 79.001Z" fill="#F24E1E"/>
<path d="M362.796 91.3932V90.7489H363.074V90.6156H362.413V90.7489H362.674V91.3932H362.796ZM364.079 91.3932V90.6156H363.879L363.646 91.171L363.412 90.6156H363.212V91.3932H363.357V90.8045L363.573 91.3099H363.723L363.94 90.8045V91.3932H364.079Z" fill="#F79E1B"/>
<path d="M364.707 79.0012C364.706 82.7533 363.651 86.4297 361.66 89.6102C359.669 92.7906 356.824 95.3468 353.449 96.9865C350.074 98.6261 346.306 99.2831 342.575 98.8824C338.844 98.4817 335.301 97.0393 332.352 94.7203C334.733 92.8492 336.657 90.4619 337.981 87.7384C339.304 85.0149 339.992 82.0264 339.992 78.9984C339.992 75.9703 339.304 72.9818 337.981 70.2584C336.657 67.5349 334.733 65.1475 332.352 63.2765C335.301 60.9574 338.844 59.5151 342.575 59.1144C346.306 58.7136 350.074 59.3707 353.449 61.0103C356.824 62.65 359.669 65.2061 361.66 68.3866C363.651 71.567 364.706 75.2435 364.707 78.9956V79.0012Z" fill="#FFD25F"/>
</g>
</g>
<defs>
<filter id="filter0_d_95_36" x="-20" y="0" width="454" height="320" filterUnits="userSpaceOnUse" color-interpolation-filters="sRGB">
<feFlood flood-opacity="0" result="BackgroundImageFix"/>
<feColorMatrix in="SourceAlpha" type="matrix" values="0 0 0 0 0 0 0 0 0 0 0 0 0 0 0 0 0 0 127 0" result="hardAlpha"/>
<feOffset dy="12"/>
<feGaussianBlur stdDeviation="20"/>
<feColorMatrix type="matrix" values="0 0 0 0 0.721569 0 0 0 0 0.580392 0 0 0 0 0.843137 0 0 0 0.35 0"/>
<feBlend mode="normal" in2="BackgroundImageFix" result="effect1_dropShadow_95_36"/>
<feBlend mode="normal" in="SourceGraphic" in2="effect1_dropShadow_95_36" result="shape"/>
</filter>
<filter id="filter1_d_95_36" x="46.9838" y="129.382" width="319.906" height="24.3193" filterUnits="userSpaceOnUse" color-interpolation-filters="sRGB">
<feFlood flood-opacity="0" result="BackgroundImageFix"/>
<feColorMatrix in="SourceAlpha" type="matrix" values="0 0 0 0 0 0 0 0 0 0 0 0 0 0 0 0 0 0 127 0" result="hardAlpha"/>
<feOffset dy="0.701049"/>
<feGaussianBlur stdDeviation="1.5"/>
<feColorMatrix type="matrix" values="0 0 0 0 0.302166 0 0 0 0 0.0193229 0 0 0 0 0.6625 0 0 0 0.3 0"/>
<feBlend mode="normal" in2="BackgroundImageFix" result="effect1_dropShadow_95_36"/>
<feBlend mode="normal" in="SourceGraphic" in2="effect1_dropShadow_95_36" result="shape"/>
</filter>
<filter id="filter2_d_95_36" x="44.2539" y="213.487" width="190.572" height="20.5605" filterUnits="userSpaceOnUse" color-interpolation-filters="sRGB">
<feFlood flood-opacity="0" result="BackgroundImageFix"/>
<feColorMatrix in="SourceAlpha" type="matrix" values="0 0 0 0 0 0 0 0 0 0 0 0 0 0 0 0 0 0 127 0" result="hardAlpha"/>
<feOffset dy="0.701049"/>
<feGaussianBlur stdDeviation="1.5"/>
<feColorMatrix type="matrix" values="0 0 0 0 0.302166 0 0 0 0 0.0193229 0 0 0 0 0.6625 0 0 0 0.3 0"/>
<feBlend mode="normal" in2="BackgroundImageFix" result="effect1_dropShadow_95_36"/>
<feBlend mode="normal" in="SourceGraphic" in2="effect1_dropShadow_95_36" result="shape"/>
</filter>
<filter id="filter3_d_95_36" x="311.829" y="213.346" width="53.8269" height="23.3633" filterUnits="userSpaceOnUse" color-interpolation-filters="sRGB">
<feFlood flood-opacity="0" result="BackgroundImageFix"/>
<feColorMatrix in="SourceAlpha" type="matrix" values="0 0 0 0 0 0 0 0 0 0 0 0 0 0 0 0 0 0 127 0" result="hardAlpha"/>
<feOffset dy="0.701049"/>
<feGaussianBlur stdDeviation="1.5"/>
<feColorMatrix type="matrix" values="0 0 0 0 0.302166 0 0 0 0 0.0193229 0 0 0 0 0.6625 0 0 0 0.3 0"/>
<feBlend mode="normal" in2="BackgroundImageFix" result="effect1_dropShadow_95_36"/>
<feBlend mode="normal" in="SourceGraphic" in2="effect1_dropShadow_95_36" result="shape"/>
</filter>
<linearGradient id="paint0_linear_95_36" x1="20" y1="148" x2="394" y2="148" gradientUnits="userSpaceOnUse">
<stop stop-color="#B993D6"/>
<stop offset="1" stop-color="#8CA6DB"/>
</linearGradient>
</defs>
</svg>
